<svg xmlns="http://www.w3.org/2000/svg" width="12" height="12" viewBox="0 0 12 12">
  <defs>
    <style>
      .cls-1 {
        fill: #dbdbdb;
        fill-rule: evenodd;
      }
    </style>
  </defs>
  <path id="google.svg" class="cls-1" d="M1252.39,4802.3h-5.76c0,0.6,0,1.8-.01,2.4h3.34a3.185,3.185,0,0,1-1.22,1.86v0.01a3.957,3.957,0,0,1-2.82.52,3.7,3.7,0,0,1-2.76-2.42v-0.02a3.63,3.63,0,0,1,0-2.35h0a3.679,3.679,0,0,1,2.72-2.38,3.5,3.5,0,0,1,3.12.84c0.12-.12,1.61-1.58,1.73-1.7a6.19,6.19,0,0,0-9.58,1.75h0a5.84,5.84,0,0,0,.01,5.38c-0.01,0-.01,0-0.01.01a6.144,6.144,0,0,0,3.89,3.1,6.291,6.291,0,0,0,5.64-1.25h0.01a6.2,6.2,0,0,0,1.7-5.75" transform="translate(-1240.5 -4797.5)"/>
</svg>
