<svg xmlns="http://www.w3.org/2000/svg" width="13" height="11" viewBox="0 0 13 11">
  <defs>
    <style>
      .cls-1 {
        fill: #dbdbdb;
        fill-rule: evenodd;
      }
    </style>
  </defs>
  <path id="twitter.svg" class="cls-1" d="M1296.09,4809a7.711,7.711,0,0,0,7.59-7.9c0-.12,0-0.24-0.01-0.36a5.543,5.543,0,0,0,1.33-1.44,5.472,5.472,0,0,1-1.53.44,2.831,2.831,0,0,0,1.17-1.54,5.243,5.243,0,0,1-1.69.67,2.611,2.611,0,0,0-3.78-.12,2.882,2.882,0,0,0-.77,2.66,7.508,7.508,0,0,1-5.5-2.9,2.85,2.85,0,0,0,.83,3.7,2.594,2.594,0,0,1-1.21-.34v0.03a2.755,2.755,0,0,0,2.14,2.72,2.444,2.444,0,0,1-1.2.05,2.676,2.676,0,0,0,2.49,1.93,5.255,5.255,0,0,1-3.32,1.19,4.442,4.442,0,0,1-.63-0.04,7.32,7.32,0,0,0,4.09,1.25" transform="translate(-1292 -4798)"/>
</svg>
