<svg xmlns="http://www.w3.org/2000/svg" width="18" height="19.031" viewBox="0 0 18 19.031">
  <defs>
    <style>
      .cls-1 {
        fill: #b1b1b1;
        fill-rule: evenodd;
      }
    </style>
  </defs>
  <path id="icon-search.svg" class="cls-1" d="M1358.73,778.332l-4.44-4.711a7.753,7.753,0,0,0,1.76-4.939,7.527,7.527,0,1,0-7.52,7.683,7.337,7.337,0,0,0,4.31-1.39l4.47,4.746a0.97,0.97,0,0,0,1.39.027A1.022,1.022,0,0,0,1358.73,778.332ZM1348.53,763a5.68,5.68,0,1,1-5.57,5.678A5.623,5.623,0,0,1,1348.53,763Z" transform="translate(-1341 -761)"/>
</svg>
